# xmcd
#
# Track frame offsets:
#	150
#	17541
#	41378
#	61708
#	82673
#	105378
#	127937
#	140715
#	157567
#	169195
#	194704
#	211658
#	249249
#	271277
#	289434
#	312730
#
# Disc length: 4353 seconds
#
# Revision: 1
# Processed by: cddbd v1.4PL0 Copyright (c) Steve Scherf et al.
# Submitted via: CDmax 1.8
#
DISCID=d010ff10
DTITLE=Dave Hole - Whole lotta blues
DYEAR=1996
DGENRE=Blues
TTITLE0=Nobody Hears Me Crying
TTITLE1=Short Fuse Blues
TTITLE2=Quicksand
TTITLE3=I Found Love
TTITLE4=Tore Down
TTITLE5=Key To The Highway
TTITLE6=I Can't Be Satisfied
TTITLE7=Going Down
TTITLE8=The Plumber
TTITLE9=Berwick Road
TTITLE10=Keep Your Motor Runnin'
TTITLE11=Up All Night Thinking
TTITLE12=Crazy Kind Of Woman
TTITLE13=Blues Will Call Your Name
TTITLE14=Counting My Regrets
TTITLE15=Travellimg Riverside Blues
EXTD=
EXTT0=
EXTT1=
EXTT2=
EXTT3=
EXTT4=
EXTT5=
EXTT6=
EXTT7=
EXTT8=
EXTT9=
EXTT10=
EXTT11=
EXTT12=
EXTT13=
EXTT14=
EXTT15=
PLAYORDER=
